# xmcd CD database file
#
# Track frame offsets:
#	150
#	22815
#	44961
#	66722
#	87932
#	110259
#	126449
#	147576
#	169218
#	191178
#	210493
#	230738
#
# Disc length: 3343 seconds
#
# Revision: 0
# Processed by: cddbd v1.5.2PL0 Copyright (c) Steve Scherf et al.
# Submitted via: CDex 1.70
#
DISCID=be0d0d0c
DTITLE=Sam Levine - Sax In The City - 2
DYEAR=2013
DGENRE=Jazz
TTITLE0=Everytime You Go Away
TTITLE1=Saving All My Love For You
TTITLE2=You're The Only Woman
TTITLE3=Caught Up In The Rapture
TTITLE4=You Are Not Alone
TTITLE5=Just The Way You Are
TTITLE6=Your Love Is King
TTITLE7=You Give Good Love
TTITLE8=Minute by Minute
TTITLE9=Save The Best For Last
TTITLE10=Just The Two Of Us
TTITLE11=You Don't Know Me
EXTD=YEAR: 2013
EXTT0=
EXTT1=
EXTT2=
EXTT3=
EXTT4=
EXTT5=
EXTT6=
EXTT7=
EXTT8=
EXTT9=
EXTT10=
EXTT11=
PLAYORDER=
